<?xml version="1.0" encoding="utf-8"?>
<!-- Generator: Adobe Illustrator 24.1.0, SVG Export Plug-In . SVG Version: 6.00 Build 0)  -->
<svg version="1.1" id="Capa_1" xmlns="http://www.w3.org/2000/svg" xmlns:xlink="http://www.w3.org/1999/xlink" x="0px" y="0px"
	 viewBox="0 0 841.9 595.3" style="enable-background:new 0 0 841.9 595.3;" xml:space="preserve">
<style type="text/css">
	.st0{fill:none;}
	.st1{fill:#024059;}
	.st2{fill:#F25C05;}
</style>
<g>
	<path class="st0" d="M371.9,331.5c-10.6,0-22,6.4-21.6,18.3h43.2C394,337.9,382.5,331.5,371.9,331.5z"/>
	<g>
		<polygon class="st1" points="363.6,213.3 424.9,282.9 467,282.9 390.5,196.7 453.8,121.5 417.4,121.5 363.6,186.1 363.6,121.5 
			331.4,121.5 331.4,282.9 363.6,282.9 		"/>
		<path class="st1" d="M518.8,282.9c18.7,0,33.3-5.3,44.1-16.1l-17.2-17.2c-7.7,5.7-17,8.6-26.9,8.6c-11,0-21.4-6.8-22.5-18.3h74.1
			v-10.8c0-31.1-19.8-53.8-51.6-53.8c-31.3,0-53.8,22.3-53.8,53.8C465,260.4,487.5,282.9,518.8,282.9z M518.8,200
			c10.6,0,22,6.4,21.6,18.3h-43.2C496.8,206.4,508.2,200,518.8,200z"/>
		<polygon class="st1" points="161.6,253 132.3,253 132.3,283 132.3,283 186.1,283 186.1,414.4 218.5,414.4 218.5,283 272.3,283 
			272.3,253 		"/>
		<rect x="280.7" y="306.6" class="st1" width="30.2" height="107.8"/>
		<path class="st1" d="M371.9,414.4c18.7,0,33.3-5.3,44.1-16.1l-17.2-17.2c-7.7,5.7-17,8.6-26.9,8.6c-11,0-21.4-6.8-22.5-18.3h74.1
			v-10.8c0-31.1-19.8-53.8-51.6-53.8c-31.3,0-53.8,22.3-53.8,53.8C318.1,391.9,340.6,414.4,371.9,414.4z M371.9,331.5
			c10.6,0,22,6.4,21.6,18.3h-43.2C349.9,337.9,361.4,331.5,371.9,331.5z"/>
		<path class="st1" d="M531.8,414.4v-66.8c0-23.8-17-40.8-41.9-40.8c-10.1,0-18.7,3.1-25.8,9.7v-9.9h-30.2v107.8h30.2v-68.6
			c4.4-8.6,9.7-13.2,15.9-13.7c14.8,0.4,21.6,8.8,21.6,22.9v59.3H531.8z"/>
		<path class="st1" d="M538.4,360.6c0,31.3,22.5,53.8,53.8,53.8c18.7,0,33.3-5.3,44.1-16.1l-17.2-17.2c-7.7,5.7-17,8.6-26.9,8.6
			c-11,0-21.4-6.8-22.5-18.3h74.1v-10.8c0-31.1-19.8-53.8-51.6-53.8C560.9,306.8,538.4,329.1,538.4,360.6z M592.2,331.5
			c10.6,0,22,6.4,21.6,18.3h-43.2C570.1,337.9,581.6,331.5,592.2,331.5z"/>
	</g>
	<g>
		<path class="st2" d="M788.8,306.7c-2.5-6-8.3-9.9-14.7-9.9h-70v-17.4c0-14.6-11.9-26.5-26.5-26.5h-33.9v30h30.4v17.4
			c0,14.6,11.9,26.5,26.5,26.5h39.6l-49.4,49.4c-4.9,4.9-7.8,11.7-7.8,18.7v48.8H81.9V283h50.4v-30l-53.9,0
			c-14.6,0-26.5,11.9-26.5,26.5v167.8c0,14.6,11.9,26.5,26.5,26.5h608.1c14.6,0,26.5-11.9,26.5-26.5v-50.8l72.3-72.3
			C789.9,319.6,791.2,312.7,788.8,306.7z M711.9,397.5L711.9,397.5L711.9,397.5z M764.1,303C764.1,302.9,764.1,302.9,764.1,303
			C764.1,302.9,764.1,302.9,764.1,303z"/>
		<rect x="280.7" y="252.9" class="st2" width="30.2" height="30.2"/>
	</g>
	<g>
		<path class="st1" d="M739.8,414.8v-0.9c0-0.9-0.1-1.6-0.4-2.1c-0.3-0.5-0.7-0.8-1.3-1.1c0.7-0.3,1.3-0.7,1.6-1.3
			c0.3-0.6,0.5-1.2,0.5-1.9c0-0.5-0.1-1-0.2-1.4c-0.2-0.4-0.4-0.8-0.7-1.1c-0.3-0.4-0.8-0.7-1.2-0.9c-0.5-0.2-1.2-0.3-2.1-0.3h-6.4
			v13.3h2.7v-5.2h2.7c0.8,0,1.3,0.1,1.6,0.4c0.3,0.3,0.4,0.8,0.4,1.7l0,1.2c0,0.4,0,0.8,0.1,1.1c0,0.2,0.1,0.4,0.2,0.7h3.1v-0.3
			c-0.3-0.2-0.4-0.4-0.5-0.8C739.8,415.8,739.8,415.4,739.8,414.8z M736.6,409.5c-0.3,0.1-0.7,0.2-1.3,0.2h-3v-3.6h3.1
			c0.6,0,1,0.1,1.3,0.2c0.5,0.3,0.8,0.8,0.8,1.6C737.4,408.7,737.1,409.2,736.6,409.5z"/>
		<path class="st1" d="M735,396.4c-7.8,0-14.1,6.3-14.1,14.1c0,7.8,6.3,14.1,14.1,14.1c7.8,0,14.1-6.3,14.1-14.1
			C749,402.7,742.7,396.4,735,396.4z M735,422.2c-6.5,0-11.8-5.3-11.8-11.8c0-6.5,5.3-11.8,11.8-11.8c6.5,0,11.8,5.3,11.8,11.8
			C746.7,416.9,741.5,422.2,735,422.2z"/>
	</g>
</g>
</svg>
